<svg xmlns="http://www.w3.org/2000/svg" viewBox="0 0 100 21.637"><path d="M.123 21.637q-.123 0-.123-.155L.062.157q0-.129.123-.129h3.79q.123 0 .217.123L7.016 4.25 9.841.151q.094-.123.217-.123h3.819q.123 0 .123.123l.062 21.328q0 .155-.123.155H10.43q-.124 0-.124-.155l-.029-15.83-3.262 4.716L3.79 5.648l-.033 15.83q0 .156-.126.156zm16.676 0q-.127 0-.127-.155L16.705.157q0-.126.123-.126h9.967q.123 0 .123.156v3.475q0 .127-.123.127H20.43v4.84h6.365q.123 0 .123.125l.03 3.509q0 .123-.124.123H20.43v5.432h6.394q.123 0 .123.156v3.54q0 .123-.123.123zm13.19 0q-.25 0-.25-.217L29.714.28q0-.249.247-.249h2.795L38 12.263 37.844.28q0-.249.282-.249h3.071q.188 0 .188.25l.029 21.168q0 .188-.152.188h-2.734L33.16 10.212l.214 11.176q0 .25-.279.25zm14.305 0q-.155 0-.155-.155L44.201.157q0-.126.126-.126l5.805-.03q1.707-.031 3.103.807 1.428.836 2.267 2.265.836 1.396.836 3.103v8.911q0 1.801-.868 3.291-.868 1.458-2.329 2.326-1.458.872-3.288.9zm3.632-3.819h1.927q1.147 0 1.924-.807.807-.806.807-1.924v-8.94q0-.994-.745-1.707-.716-.745-1.707-.716l-2.174.032zm11.011 3.82q-.126 0-.126-.156L58.875.157q0-.126.124-.126h6.27q1.676 0 3.075.839 1.425.807 2.264 2.203.84 1.367.84 3.103 0 1.15-.344 2.083-.34.897-.807 1.551-.463.62-.836.93 1.675 1.863 1.675 4.377l.03 6.365q0 .155-.153.155h-3.508q-.126 0-.126-.094V15.12q0-1.12-.807-1.928-.774-.836-1.924-.836h-2.047l-.033 9.126q0 .155-.123.155zM62.601 8.63h2.669q.962 0 1.707-.715.745-.713.745-1.74 0-.991-.745-1.707-.716-.713-1.707-.713H62.6zm11.31 13.006q-.123 0-.123-.155l.03-21.325q0-.126.125-.126h9.965q.126 0 .126.156v3.475q0 .127-.126.127h-6.366v4.84h6.366q.126 0 .126.125l.029 3.509q0 .123-.123.123h-6.395v5.432h6.395q.123 0 .123.156v3.54q0 .123-.123.123zm13.038 0q-.126 0-.126-.155L86.885.187q0-.156.126-.156h3.476q.123 0 .123.156v7.356L95.485.154q.094-.123.217-.123h3.57q.126 0 .061.123l-5.367 8.568 6.021 12.789q.06.126-.155.126h-3.787q-.155 0-.188-.123l-4.191-9.128-1.085 1.707v7.389q0 .155-.124.155z" fill="#fff"/></svg>