<?xml version="1.0" encoding="UTF-8" standalone="no"?>
<svg xmlns="http://www.w3.org/2000/svg" viewBox="0 0 34.092297 7.3769612">
  <g transform="translate(-22.389314,-135.99184)">
    <g transform="matrix(0.26458333,0,0,0.26458333,-16.587738,16.16323)">
      <path fill="white" d="m 147.47484,480.77695 q -0.16,0 -0.16,-0.2 l 0.08,-27.48 q 0,-0.16 0.16,-0.16 h 4.88 q 0.16,0 0.28,0.16 l 3.64,5.28 3.64,-5.28 q 0.12,-0.16 0.28,-0.16 h 4.92 q 0.16,0 0.16,0.16 l 0.08,27.48 q 0,0.2 -0.16,0.2 h -4.52 q -0.16,0 -0.16,-0.2 l -0.04,-20.4 -4.2,6.08 -4.16,-6.08 -0.04,20.4 q 0,0.2 -0.16,0.2 z" />
      <path fill="white" d="m 168.95922,480.77695 q -0.16,0 -0.16,-0.2 l 0.04,-27.48 q 0,-0.16 0.16,-0.16 h 12.84 q 0.16,0 0.16,0.2 v 4.48 q 0,0.16 -0.16,0.16 h -8.2 v 6.24 h 8.2 q 0.16,0 0.16,0.16 l 0.04,4.52 q 0,0.16 -0.16,0.16 h -8.24 v 7 h 8.24 q 0.16,0 0.16,0.2 v 4.56 q 0,0.16 -0.16,0.16 z" />
      <path fill="white" d="m 185.95609,480.77695 q -0.32,0 -0.32,-0.28 l -0.04,-27.24 q 0,-0.32 0.32,-0.32 h 3.6 l 6.76,15.76 -0.2,-15.44 q 0,-0.32 0.36,-0.32 h 3.96 q 0.24,0 0.24,0.32 l 0.04,27.28 q 0,0.24 -0.2,0.24 h -3.52 l -6.92,-14.72 0.28,14.4 q 0,0.32 -0.36,0.32 z" />
      <path fill="white" d="m 204.38984,480.77695 q -0.2,0 -0.2,-0.2 l 0.08,-27.48 q 0,-0.16 0.16,-0.16 l 7.48,-0.04 q 2.2,-0.04 4,1.04 1.84,1.08 2.92,2.92 1.08,1.8 1.08,4 v 11.48 q 0,2.32 -1.12,4.24 -1.12,1.88 -3,3 -1.88,1.12 -4.24,1.16 z m 4.68,-4.92 h 2.48 q 1.48,0 2.48,-1.04 1.04,-1.04 1.04,-2.48 v -11.52 q 0,-1.28 -0.96,-2.2 -0.92,-0.96 -2.2,-0.92 l -2.8,0.04 z" />
      <path fill="white" d="m 223.25609,480.77695 q -0.16,0 -0.16,-0.2 l 0.08,-27.48 q 0,-0.16 0.16,-0.16 h 8.08 q 2.16,0 3.96,1.08 1.84,1.04 2.92,2.84 1.08,1.76 1.08,4 0,1.48 -0.44,2.68 -0.44,1.16 -1.04,2 -0.6,0.8 -1.08,1.2 2.16,2.4 2.16,5.64 l 0.04,8.2 q 0,0.2 -0.2,0.2 h -4.52 q -0.16,0 -0.16,-0.12 v -8.28 q 0,-1.44 -1.04,-2.48 -1,-1.08 -2.48,-1.08 h -2.64 l -0.04,11.76 q 0,0.2 -0.16,0.2 z m 4.72,-16.76 h 3.44 q 1.24,0 2.2,-0.92 0.96,-0.92 0.96,-2.24 0,-1.28 -0.96,-2.2 -0.92,-0.92 -2.2,-0.92 h -3.44 z" />
      <path fill="white" d="m 242.55297,480.77695 q -0.16,0 -0.16,-0.2 l 0.04,-27.48 q 0,-0.16 0.16,-0.16 h 12.84 q 0.16,0 0.16,0.2 v 4.48 q 0,0.16 -0.16,0.16 h -8.2 v 6.24 h 8.2 q 0.16,0 0.16,0.16 l 0.04,4.52 q 0,0.16 -0.16,0.16 h -8.24 v 7 h 8.24 q 0.16,0 0.16,0.2 v 4.56 q 0,0.16 -0.16,0.16 z" />
      <path fill="white" d="m 259.34984,480.77695 q -0.16,0 -0.16,-0.2 l 0.08,-27.44 q 0,-0.2 0.16,-0.2 h 4.48 q 0.16,0 0.16,0.2 v 9.48 l 6.28,-9.52 q 0.12,-0.16 0.28,-0.16 h 4.6 q 0.16,0 0.08,0.16 l -6.92,11.04 7.76,16.48 q 0.08,0.16 -0.2,0.16 h -4.88 q -0.2,0 -0.24,-0.16 l -5.4,-11.76 -1.4,2.2 v 9.52 q 0,0.2 -0.16,0.2 z" />
    </g>
  </g>
</svg>
