<svg xmlns="http://www.w3.org/2000/svg" viewBox="0 0 8 8"><path fill="#fff" d="M4.75.75A.75.75 0 014 1.5a.75.75 0 01-.75-.75A.75.75 0 014 0a.75.75 0 01.75.75zM4 6.5a.75.75 0 00-.75.75A.75.75 0 004 8a.75.75 0 00.75-.75A.75.75 0 004 6.5zm3.25-3.25A.75.75 0 006.5 4a.75.75 0 00.75.75A.75.75 0 008 4a.75.75 0 00-.75-.75zM1.5 4a.75.75 0 00-.75-.75A.75.75 0 000 4a.75.75 0 00.75.75A.75.75 0 001.5 4zm.202 1.548a.75.75 0 00-.75.75.75.75 0 00.75.75.75.75 0 000-1.5zm4.596 0a.75.75 0 00-.75.75.75.75 0 00.75.75.75.75 0 000-1.5zM1.702.952a.75.75 0 00-.75.75.75.75 0 00.75.75.75.75 0 000-1.5z"/></svg>